<svg width="19" height="28" viewBox="0 0 19 28" fill="none" xmlns="http://www.w3.org/2000/svg">
<path d="M4.6667 13.31C6.30344 12.3552 8.24618 11.8979 10.2019 12.0072C12.1576 12.1164 14.0201 12.7862 15.5086 13.9155C16.9971 15.0449 18.0308 16.5725 18.4538 18.268C18.8767 19.9635 18.666 21.7349 17.8534 23.315C17.0408 24.895 15.6703 26.1981 13.9488 27.0276C12.2273 27.8571 10.2481 28.1681 8.30965 27.9135C6.37124 27.659 4.5788 26.8529 3.2027 25.6166C1.82661 24.3804 0.94149 22.7812 0.680872 21.0602C-0.143391 17.4723 -0.464064 13.1599 1.14833 9.25582C2.87816 5.07355 6.71268 1.6437 13.58 0.0508327C14.1523 -0.0656891 14.7533 0.019886 15.2556 0.289412C15.7578 0.558937 16.1219 0.991219 16.2705 1.49459C16.4191 1.99796 16.3406 2.53283 16.0517 2.98579C15.7627 3.43875 15.2861 3.77417 14.7227 3.92093C9.1674 5.20962 6.57041 7.78302 5.38934 10.6326C5.03931 11.483 4.80219 12.3815 4.6667 13.31Z" fill="#D99E39" fill-opacity="0.4"/>
</svg>
